<svg xmlns="http://www.w3.org/2000/svg" version="1.1" xmlns:xlink="http://www.w3.org/1999/xlink" xmlns:svgjs="http://svgjs.dev/svgjs" width="2560" height="720" preserveAspectRatio="none" viewBox="0 0 2560 720"><g mask="url(&quot;#SvgjsMask1075&quot;)" fill="none"><rect width="2560" height="720" x="0" y="0" fill="rgba(29, 33, 42, 1)"></rect><path d="M 0,157 C 128,175.2 384,254.4 640,248 C 896,241.6 1024,122 1280,125 C 1536,128 1664,286.8 1920,263 C 2176,239.2 2432,57.4 2560,6L2560 720L0 720z" fill="rgba(37, 42, 57, 1)"></path><path d="M 0,396 C 85.4,433.2 256.2,559.2 427,582 C 597.8,604.8 683.2,505.2 854,510 C 1024.8,514.8 1110.2,626.4 1281,606 C 1451.8,585.6 1537.2,397 1708,408 C 1878.8,419 1964.6,644.6 2135,661 C 2305.4,677.4 2475,524.2 2560,490L2560 720L0 720z" fill="rgba(45, 52, 70, 1)"></path></g><defs><mask id="SvgjsMask1075"><rect width="2560" height="720" fill="#ffffff"></rect></mask></defs></svg>